<svg width="48" height="48" viewBox="0 0 48 48" fill="none" xmlns="http://www.w3.org/2000/svg">
<g clip-path="url(#clip0_375_362)">
<rect width="48" height="48" rx="14" fill="#BEF264"/>
<path fill-rule="evenodd" clip-rule="evenodd" d="M13.3183 31.4927H16.9908C17.7188 31.4927 18.309 32.0829 18.309 32.811V36.6817C18.309 37.4098 18.8992 38 19.6273 38H24.0544C24.3977 38 24.7275 37.8661 24.9736 37.6267L37.6009 25.3442C37.8561 25.096 38 24.7552 38 24.3993V19.0087C38 18.6682 37.8682 18.3409 37.6323 18.0953L32.1649 12.4049C31.9163 12.1462 31.5731 12 31.2143 12H13.3183C12.5902 12 12 12.5902 12 13.3183V30.1744C12 30.9025 12.5902 31.4927 13.3183 31.4927ZM19.2711 18.5953H30.8986C31.4143 18.5953 31.8324 19.0133 31.8324 19.529V23.9636C31.8324 24.4793 31.4143 24.8974 30.8986 24.8974H25.1265C24.8738 24.8974 24.6319 24.9998 24.4561 25.1812L19.9415 29.8379C19.3576 30.4403 18.3373 30.0269 18.3373 29.188V19.529C18.3373 19.0133 18.7554 18.5953 19.2711 18.5953Z" fill="#064E3B"/>
</g>
<defs>
<clipPath id="clip0_375_362">
<rect width="48" height="48" fill="white"/>
</clipPath>
</defs>
</svg>
