<svg width="121" height="25" viewBox="0 0 121 25" fill="none" xmlns="http://www.w3.org/2000/svg">
<g clip-path="url(#clip0_376_364)">
<path fill-rule="evenodd" clip-rule="evenodd" d="M1.01406 17.9944H3.83904C4.39909 17.9944 4.8531 18.4484 4.8531 19.0084V21.9859C4.8531 22.546 5.30711 23 5.86716 23H9.2726C9.53669 23 9.79035 22.897 9.97966 22.7128L19.693 13.2648C19.8893 13.0739 20 12.8117 20 12.5379V8.3913C20 8.12937 19.8986 7.8776 19.7172 7.68873L15.5115 3.31148C15.3203 3.11248 15.0562 3 14.7802 3H1.01406C0.45401 3 0 3.45401 0 4.01406V16.9803C0 17.5404 0.454011 17.9944 1.01406 17.9944ZM5.59322 8.07324H14.5375C14.9342 8.07324 15.2558 8.39483 15.2558 8.79154V12.2028C15.2558 12.5995 14.9342 12.921 14.5375 12.921H10.0974C9.90302 12.921 9.71695 12.9998 9.58166 13.1394L6.10894 16.7214C5.65976 17.1848 4.87492 16.8668 4.87492 16.2215V8.79154C4.87492 8.39483 5.19652 8.07324 5.59322 8.07324Z" fill="#BEF264"/>
<path d="M26.2047 5.82452H29.2997L29.0453 6.94806C30.289 5.98704 31.6669 5.50653 33.1791 5.50653C34.4793 5.50653 35.5322 5.88105 36.3378 6.63008C37.1433 7.36497 37.5461 8.36132 37.5461 9.61912C37.5461 10.0148 37.5037 10.4388 37.4189 10.8911C37.1928 11.9651 36.7759 12.912 36.1682 13.7317C35.5605 14.5514 34.7973 15.1874 33.8787 15.6396C32.9742 16.0919 31.9708 16.318 30.8684 16.318C30.176 16.318 29.5259 16.2049 28.9181 15.9788C28.3246 15.7527 27.8299 15.4559 27.4342 15.0884L26.2471 20.6426H23.046L26.2047 5.82452ZM30.5929 13.8165C31.455 13.8165 32.2181 13.548 32.8823 13.011C33.5466 12.4739 33.9706 11.7673 34.1543 10.8911C34.2108 10.6508 34.2391 10.3894 34.2391 10.1067C34.2391 9.44247 34.0342 8.92663 33.6243 8.55918C33.2145 8.19173 32.6209 8.00801 31.8436 8.00801C31.1794 8.00801 30.5434 8.18466 29.9357 8.53798C29.3421 8.8913 28.8687 9.35767 28.5154 9.93711L28.1126 11.8662C28.1974 12.4598 28.4659 12.9332 28.9181 13.2865C29.3704 13.6399 29.9286 13.8165 30.5929 13.8165ZM43.22 16.318C42.2166 16.318 41.3262 16.1484 40.5489 15.8092C39.7857 15.47 39.1922 14.9825 38.7682 14.3465C38.3442 13.7105 38.1322 12.9615 38.1322 12.0994C38.1322 11.7037 38.1746 11.308 38.2594 10.9123C38.5986 9.27288 39.4112 7.96561 40.6973 6.99046C41.9834 6.00118 43.5945 5.50653 45.5306 5.50653C47.1135 5.50653 48.3572 5.88811 49.2617 6.65128C50.1661 7.4003 50.6184 8.41785 50.6184 9.70392C50.6184 10.0855 50.576 10.4883 50.4912 10.9123C50.1379 12.5799 49.3253 13.9013 48.0533 14.8765C46.7814 15.8375 45.1703 16.318 43.22 16.318ZM43.7499 13.8165C44.612 13.8165 45.354 13.5551 45.9758 13.0322C46.5977 12.4951 47.0075 11.7885 47.2054 10.9123C47.276 10.5307 47.3114 10.2127 47.3114 9.95831C47.3114 8.65811 46.5411 8.00801 45.0007 8.00801C44.1245 8.00801 43.3754 8.26946 42.7536 8.79237C42.1318 9.30114 41.729 10.0078 41.5453 10.9123C41.4746 11.2938 41.4393 11.6048 41.4393 11.845C41.4393 13.1593 42.2095 13.8165 43.7499 13.8165ZM55.1677 16.318C54.0936 16.318 53.2598 16.0353 52.6662 15.47C52.0868 14.8906 51.7971 14.1274 51.7971 13.1805C51.7971 12.799 51.8324 12.4598 51.9031 12.163L53.2598 5.82452H56.4608L55.1677 11.8238C55.1112 12.0923 55.0829 12.3467 55.0829 12.587C55.0829 13.0251 55.203 13.3431 55.4433 13.5409C55.6836 13.7246 56.0651 13.8165 56.588 13.8165C57.1251 13.8165 57.6551 13.6893 58.178 13.4349C58.7009 13.1805 59.1743 12.799 59.5983 12.2902L60.9762 5.82452H64.1773L62.015 16H58.9199L59.1743 14.7705C58.609 15.2934 57.973 15.682 57.2664 15.9364C56.5739 16.1908 55.8743 16.318 55.1677 16.318ZM66.4081 5.82452H69.5031L69.2488 6.94806C70.4924 5.98704 71.8704 5.50653 73.3826 5.50653C74.6828 5.50653 75.7356 5.88105 76.5412 6.63008C77.3467 7.36497 77.7495 8.36132 77.7495 9.61912C77.7495 10.0148 77.7071 10.4388 77.6223 10.8911C77.3962 11.9651 76.9793 12.912 76.3716 13.7317C75.7639 14.5514 75.0007 15.1874 74.0821 15.6396C73.1776 16.0919 72.1742 16.318 71.0719 16.318C70.3794 16.318 69.7293 16.2049 69.1216 15.9788C68.528 15.7527 68.0334 15.4559 67.6376 15.0884L66.4505 20.6426H63.2495L66.4081 5.82452ZM70.7963 13.8165C71.6584 13.8165 72.4215 13.548 73.0858 13.011C73.75 12.4739 74.174 11.7673 74.3577 10.8911C74.4142 10.6508 74.4425 10.3894 74.4425 10.1067C74.4425 9.44247 74.2376 8.92663 73.8277 8.55918C73.4179 8.19173 72.8243 8.00801 72.047 8.00801C71.3828 8.00801 70.7468 8.18466 70.1391 8.53798C69.5455 8.8913 69.0721 9.35767 68.7188 9.93711L68.316 11.8662C68.4008 12.4598 68.6693 12.9332 69.1216 13.2865C69.5738 13.6399 70.132 13.8165 70.7963 13.8165ZM82.6814 16.318C81.3812 16.318 80.3283 15.9435 79.5228 15.1944C78.7172 14.4454 78.3144 13.442 78.3144 12.1842C78.3144 11.7885 78.3568 11.3716 78.4416 10.9335C78.6678 9.87351 79.0988 8.93369 79.7348 8.114C80.3707 7.29431 81.141 6.65834 82.0455 6.2061C82.9641 5.73972 83.9463 5.50653 84.9921 5.50653C86.5467 5.50653 87.6914 5.91638 88.4263 6.73607L88.6383 5.82452H91.8394L89.6771 16H86.582L86.8152 14.8977C86.1792 15.3923 85.5291 15.7527 84.8649 15.9788C84.2148 16.2049 83.487 16.318 82.6814 16.318ZM83.9322 13.8377C84.6529 13.8377 85.3101 13.6681 85.9037 13.3289C86.5114 12.9756 86.9919 12.4951 87.3452 11.8874L87.748 9.95831C87.6773 9.37887 87.4159 8.91249 86.9636 8.55918C86.5114 8.19173 85.9531 8.00801 85.2889 8.00801C84.4268 8.00801 83.6636 8.27653 82.9994 8.81357C82.3352 9.35061 81.9112 10.0572 81.7275 10.9335C81.6427 11.315 81.6003 11.6684 81.6003 11.9934C81.6003 12.6152 81.784 13.0816 82.1515 13.3925C82.5189 13.6893 83.1125 13.8377 83.9322 13.8377ZM93.9626 5.82452H97.0576L96.7396 7.28724C97.2484 6.7926 97.8985 6.41809 98.6899 6.1637C99.4813 5.89518 100.343 5.76092 101.276 5.76092L100.767 8.1988C99.7781 8.1988 98.8807 8.34719 98.0752 8.64397C97.2837 8.94076 96.6831 9.393 96.2732 10.0007L95.0013 16H91.8003L93.9626 5.82452ZM104.714 4.2558C104.276 4.2558 103.923 4.13567 103.654 3.89542C103.4 3.64103 103.273 3.31598 103.273 2.92027C103.273 2.34083 103.492 1.84619 103.93 1.43634C104.382 1.0265 104.891 0.821573 105.456 0.821573C105.88 0.821573 106.219 0.948767 106.474 1.20315C106.742 1.44341 106.877 1.76139 106.877 2.1571C106.877 2.73654 106.657 3.23118 106.219 3.64103C105.781 4.05088 105.28 4.2558 104.714 4.2558ZM102.785 5.82452H106.007L103.845 16H100.623L102.785 5.82452ZM111.064 16.318C109.764 16.318 108.711 15.9435 107.905 15.1944C107.1 14.4454 106.697 13.442 106.697 12.1842C106.697 11.7885 106.739 11.3716 106.824 10.9335C107.05 9.87351 107.481 8.93369 108.117 8.114C108.753 7.29431 109.524 6.65834 110.428 6.2061C111.347 5.73972 112.329 5.50653 113.375 5.50653C114.929 5.50653 116.074 5.91638 116.809 6.73607L117.021 5.82452H120.222L118.06 16H114.965L115.198 14.8977C114.562 15.3923 113.912 15.7527 113.247 15.9788C112.597 16.2049 111.87 16.318 111.064 16.318ZM112.315 13.8377C113.035 13.8377 113.693 13.6681 114.286 13.3289C114.894 12.9756 115.374 12.4951 115.728 11.8874L116.131 9.95831C116.06 9.37887 115.798 8.91249 115.346 8.55918C114.894 8.19173 114.336 8.00801 113.671 8.00801C112.809 8.00801 112.046 8.27653 111.382 8.81357C110.718 9.35061 110.294 10.0572 110.11 10.9335C110.025 11.315 109.983 11.6684 109.983 11.9934C109.983 12.6152 110.167 13.0816 110.534 13.3925C110.901 13.6893 111.495 13.8377 112.315 13.8377Z" fill="#163300"/>
</g>
<defs>
<clipPath id="clip0_376_364">
<rect width="121" height="25" fill="white"/>
</clipPath>
</defs>
</svg>
